# xmcd
#
# Track frame offsets: 
#        150
#        16575
#        30375
#        50175
#        74625
#        94950
#        125475
#        145725
#        166800
#
# Disc length: 2672 seconds
#
# Revision: 2
# Processed by: cddbd v1.5.2PL0 Copyright (c) Steve Scherf et al.
# Submitted via: ExactAudioCopy v0.99pb4
#
DISCID=770a6e09
DTITLE=Bobby King and Terry Evans - Live And Let Live
DYEAR=1900
DGENRE=Blues
TTITLE0=Just A Little Bit
TTITLE1=Bald Head
TTITLE2=Seeing Is Believing
TTITLE3=Let Love Begin
TTITLE4=Saturday Night
TTITLE5=Let Me Go Back To The Country
TTITLE6=Got To Keep Moving
TTITLE7=Live And Let Live
TTITLE8=At The Dark End Of The Street
EXTD=1988
EXTT0=
EXTT1=
EXTT2=
EXTT3=
EXTT4=
EXTT5=
EXTT6=
EXTT7=
EXTT8=
PLAYORDER=
